<svg xmlns="http://www.w3.org/2000/svg" width="21.376" height="25.651" viewBox="0 0 21.376 25.651">
  <g id="Group_16980" data-name="Group 16980" transform="translate(-1394 -225.349)">
    <path id="Path_9388" data-name="Path 9388" d="M24.238,9H7.138A2.138,2.138,0,0,0,5,11.138v11.4a2.138,2.138,0,0,0,2.138,2.138h17.1a2.138,2.138,0,0,0,2.138-2.138v-11.4A2.138,2.138,0,0,0,24.238,9Zm.713,13.538a.713.713,0,0,1-.713.713H7.138a.713.713,0,0,1-.713-.713v-11.4a.713.713,0,0,1,.713-.713h17.1a.713.713,0,0,1,.713.713Z" transform="translate(1389 226.324)" fill="#fff"/>
    <path id="Path_9389" data-name="Path 9389" d="M14.413,2A6.427,6.427,0,0,0,8,8.413v4.275a.713.713,0,0,0,.713.713h11.4a.713.713,0,0,0,.713-.713V8.413A6.427,6.427,0,0,0,14.413,2ZM9.425,11.975V8.413a4.988,4.988,0,1,1,9.975,0v3.563Z" transform="translate(1390.275 223.349)" fill="#fff"/>
    <rect id="Rectangle_3246" data-name="Rectangle 3246" width="2" height="5" transform="translate(1404 240.349)" fill="#fff"/>
  </g>
</svg>
